<?xml version="1.0" encoding="utf-8"?>
<!-- Generator: Adobe Illustrator 22.0.1, SVG Export Plug-In . SVG Version: 6.00 Build 0)  -->
<svg version="1.1" id="Layer_1" xmlns="http://www.w3.org/2000/svg" xmlns:xlink="http://www.w3.org/1999/xlink" x="0px" y="0px"
	 viewBox="0 0 323 40" style="enable-background:new 0 0 323 40;" xml:space="preserve">
<style type="text/css">
	.st0{opacity:0.4;fill:#FFFFFF;enable-background:new    ;}
	.st1{fill:#FFFFFF;}
</style>
<g id="Docs">
	<path id="docs" class="st0" d="M0,30.8h3.1c2.6,0,4.3,1.7,4.3,4.4s-1.7,4.4-4.3,4.4H0V30.8z M3,38c1.7,0,2.6-1.1,2.6-2.8
		S4.7,32.4,3,32.4H1.8v5.5L3,38L3,38z M12.8,39.7c-2.4,0-4.1-1.9-4.1-4.5s1.7-4.5,4.1-4.5s4.1,1.9,4.1,4.5
		C16.9,37.8,15.2,39.7,12.8,39.7z M12.8,32.3c-1.4,0-2.3,1.2-2.3,2.9s0.9,2.9,2.3,2.9s2.3-1.2,2.3-2.9S14.2,32.3,12.8,32.3z
		 M22.5,30.7c1,0,1.7,0.3,2.3,0.7v1.8c-0.7-0.6-1.4-0.9-2.2-0.9c-1.6,0-2.6,1.1-2.6,2.8s1,2.8,2.6,2.8c0.8,0,1.5-0.3,2.2-0.8v1.8
		c-0.6,0.4-1.3,0.7-2.3,0.7c-2.5,0-4.3-1.8-4.3-4.5C18.2,32.5,20,30.7,22.5,30.7z M26.6,36.1v-5.2h1.8v5c0,1.5,0.7,2.2,1.8,2.2
		s1.8-0.7,1.8-2.2v-5h1.8v5.2c0,2.4-1.4,3.6-3.6,3.6C28.1,39.7,26.6,38.5,26.6,36.1z M40.2,37.7L37.7,34v5.6h-1.8v-8.7h1.7l2.6,4.1
		l2.6-4.1h1.7v8.7h-1.8V34L40.2,37.7L40.2,37.7z M52.7,30.8v1.6h-4.1v1.9h3.7v1.5h-3.7v2.1h4.1v1.6h-5.9v-8.7
		C46.8,30.8,52.7,30.8,52.7,30.8z M61.9,39.6h-1.4l-4.1-5.8v5.8h-1.7v-8.7h1.7l3.8,5.5v-5.5h1.7V39.6z M63.4,30.8h7.4v1.6H68v7.1
		h-1.8v-7.1h-2.8C63.4,32.4,63.4,30.8,63.4,30.8z M75.9,30.8l3.3,8.7h-1.8l-0.8-2.1h-3.3l-0.8,2.1h-1.8l3.3-8.7
		C74,30.8,75.9,30.8,75.9,30.8z M73.9,35.9H76L74.9,33L73.9,35.9z M79.1,30.8h7.4v1.6h-2.8v7.1h-1.8v-7.1h-2.8
		C79.1,32.4,79.1,30.8,79.1,30.8z M89.8,39.6H88v-8.7h1.8V39.6z M95.6,39.7c-2.4,0-4.1-1.9-4.1-4.5s1.7-4.5,4.1-4.5s4.1,1.9,4.1,4.5
		C99.8,37.8,98.1,39.7,95.6,39.7z M95.6,32.3c-1.4,0-2.3,1.2-2.3,2.9s0.9,2.9,2.3,2.9s2.3-1.2,2.3-2.9S97,32.3,95.6,32.3z
		 M108.8,39.6h-1.4l-4.1-5.8v5.8h-1.7v-8.7h1.7l3.8,5.5v-5.5h1.7V39.6z M118.7,30.8l3.3,8.7h-1.8l-0.8-2.1h-3.3l-0.8,2.1h-1.8
		l3.3-8.7C116.8,30.8,118.7,30.8,118.7,30.8z M116.8,35.9h2.1l-1.1-2.9L116.8,35.9z M130.8,39.6h-1.4l-4.1-5.8v5.8h-1.7v-8.7h1.7
		l3.8,5.5v-5.5h1.7V39.6z M133,30.8h3.1c2.6,0,4.3,1.7,4.3,4.4s-1.7,4.4-4.3,4.4H133V30.8z M136,38c1.7,0,2.6-1.1,2.6-2.8
		s-0.9-2.8-2.6-2.8h-1.2v5.5L136,38L136,38z M149.9,30.8l3.3,8.7h-1.8l-0.8-2.1h-3.3l-0.8,2.1h-1.8l3.3-8.7
		C148,30.8,149.9,30.8,149.9,30.8z M147.9,35.9h2.1l-1.1-2.9L147.9,35.9z M156.4,36.5v3h-1.8v-8.7h3.5c1.8,0,3.1,1,3.1,2.9
		c0,1.8-1.2,2.8-3.1,2.8H156.4z M158.1,32.4h-1.6V35h1.6c0.9,0,1.4-0.5,1.4-1.3C159.4,32.9,159,32.4,158.1,32.4z M164.6,39.6h-1.8
		v-8.7h1.8V39.6z M171.8,36.3v3.3H170v-8.7h3.6c1.8,0,3.1,1,3.1,2.8c0,1.4-0.8,2.3-2,2.6l2.3,3.4h-2l-2.2-3.3L171.8,36.3L171.8,36.3
		z M171.8,34.8h1.7c0.9,0,1.4-0.5,1.4-1.2s-0.5-1.2-1.4-1.2h-1.7V34.8z M184.3,30.8v1.6h-4.1v1.9h3.7v1.5h-3.7v2.1h4.1v1.6h-5.9
		v-8.7C178.4,30.8,184.3,30.8,184.3,30.8z M186.3,39.6v-8.7h5.8v1.6h-4v2.2h3.7v1.6h-3.7v3.3C188.1,39.6,186.3,39.6,186.3,39.6z
		 M199.7,30.8v1.6h-4.1v1.9h3.7v1.5h-3.7v2.1h4.1v1.6h-5.9v-8.7C193.8,30.8,199.7,30.8,199.7,30.8z M203.5,36.3v3.3h-1.8v-8.7h3.6
		c1.8,0,3.1,1,3.1,2.8c0,1.4-0.8,2.3-2,2.6l2.3,3.4h-2l-2.2-3.3L203.5,36.3L203.5,36.3z M203.5,34.8h1.7c0.9,0,1.4-0.5,1.4-1.2
		s-0.5-1.2-1.4-1.2h-1.7V34.8z M216,30.8v1.6h-4.1v1.9h3.7v1.5h-3.7v2.1h4.1v1.6h-5.9v-8.7C210.1,30.8,216,30.8,216,30.8z
		 M225.3,39.6h-1.4l-4.1-5.8v5.8H218v-8.7h1.7l3.8,5.5v-5.5h1.7v8.7H225.3z M231.4,30.7c1,0,1.7,0.3,2.3,0.7v1.8
		c-0.7-0.6-1.4-0.9-2.2-0.9c-1.6,0-2.6,1.1-2.6,2.8s1,2.8,2.6,2.8c0.8,0,1.5-0.3,2.2-0.8v1.8c-0.6,0.4-1.3,0.7-2.3,0.7
		c-2.5,0-4.3-1.8-4.3-4.5C227.1,32.5,228.9,30.7,231.4,30.7z M241.5,30.8v1.6h-4.1v1.9h3.7v1.5h-3.7v2.1h4.1v1.6h-5.9v-8.7
		C235.6,30.8,241.5,30.8,241.5,30.8z"/>
</g>
<g>
	<g>
		<path class="st1" d="M0.9,1.8H17v1.5H9.8v18.2H8.1V3.3H0.9V1.8z"/>
		<path class="st1" d="M21.8,20.4c1.6,0,2.8-0.4,4-1.4v1.6c-1.1,0.9-2.5,1.3-4.1,1.3c-4,0-6.7-2.8-6.7-7.3c0-4.4,2.4-7.6,6.2-7.6
			c3.7,0,5.7,2.8,5.7,7v0.6H16.6C16.6,18.4,18.9,20.4,21.8,20.4z M16.7,13.2h8.6c-0.1-2.5-1.3-4.8-4.1-4.8
			C18.9,8.4,17.1,10.2,16.7,13.2z"/>
		<path class="st1" d="M30.8,21.6h-1.6V0.7h1.6V21.6z"/>
		<path class="st1" d="M40,20.4c1.6,0,2.8-0.4,4-1.4v1.6c-1.1,0.9-2.5,1.3-4.1,1.3c-4,0-6.7-2.8-6.7-7.3c0-4.4,2.4-7.6,6.2-7.6
			c3.7,0,5.7,2.8,5.7,7v0.6H34.8C34.8,18.4,37.1,20.4,40,20.4z M34.9,13.2h8.6c-0.1-2.5-1.3-4.8-4.1-4.8
			C37.1,8.4,35.3,10.2,34.9,13.2z"/>
		<path class="st1" d="M54.1,8.8c-0.4-0.2-0.8-0.3-1.3-0.3c-1.7,0-3.1,1.3-3.8,3.1v10h-1.6V7.3H49v2.3C49.7,8.2,51.1,7,52.9,7
			c0.5,0,0.9,0.1,1.3,0.2V8.8z"/>
		<path class="st1" d="M56.7,4c-0.6,0-1.1-0.5-1.1-1.1c0-0.6,0.5-1.1,1.1-1.1s1.1,0.5,1.1,1.1C57.8,3.6,57.3,4,56.7,4z M57.5,21.6
			h-1.6V7.3h1.6V21.6z"/>
		<path class="st1" d="M71.7,21.6h-2l-7.4-7.3v7.3h-1.6V0.7h1.6v12.9l7.2-6.2h2.1L64,13.8L71.7,21.6z"/>
		<path class="st1" d="M81.1,18.9c1.3,1,2.3,1.4,3.7,1.4c2.5,0,3.7-1.5,3.7-5.1V1.8h1.6v13.5c0,4.5-1.9,6.6-5.4,6.6
			c-1.6,0-2.9-0.6-3.7-1.2V18.9z"/>
		<path class="st1" d="M104.5,21.6h-1.6v-2.3c-0.9,1.4-2.5,2.6-4.5,2.6c-3.2,0-5-2.1-5-5.1V7.3H95v9.2c0,2.2,1.1,3.9,3.7,3.9
			c2,0,3.5-1.4,4.2-3.1v-10h1.6V21.6z"/>
		<path class="st1" d="M106.8,18.7c1.3,1.1,2.7,1.7,4.6,1.7c1.8,0,3.4-0.7,3.4-2.5c0-1.2-0.8-2-2.3-2.5l-2.4-0.9
			c-1.9-0.7-3.3-1.6-3.3-3.8c0-2.4,2.1-3.8,4.7-3.8c1.5,0,3,0.4,4.2,1.3V10c-1.2-0.9-2.4-1.6-4.2-1.6c-1.7,0-3.2,0.8-3.2,2.3
			c0,1.3,0.9,1.9,2.4,2.4l2.5,0.9c2,0.7,3,1.9,3,3.7c0,2.6-2.3,4-5,4c-1.9,0-3.6-0.6-4.5-1.4V18.7z"/>
		<path class="st1" d="M122,21.6h-1.6V8.7h-3.1V7.3h3.1V3.6h1.6v3.7h3.4v1.4H122V21.6z"/>
		<path class="st1" d="M127.3,1.8h6c5.7,0,9.6,3.9,9.6,9.9s-3.9,9.9-9.6,9.9h-6V1.8z M133.3,20.1c4.9,0,7.9-3.3,7.9-8.4
			s-3.1-8.4-7.9-8.4h-4.4v16.7H133.3z"/>
		<path class="st1" d="M151.2,20.4c1.6,0,2.8-0.4,4-1.4v1.6c-1.1,0.9-2.5,1.3-4.1,1.3c-4,0-6.7-2.8-6.7-7.3c0-4.4,2.4-7.6,6.2-7.6
			c3.7,0,5.7,2.8,5.7,7v0.6H146C146,18.4,148.3,20.4,151.2,20.4z M146.1,13.2h8.6c-0.1-2.5-1.3-4.8-4.1-4.8
			C148.3,8.4,146.5,10.2,146.1,13.2z"/>
		<path class="st1" d="M164.5,7c1.4,0,2.8,0.4,3.8,1.3v1.6c-1.1-1-2.3-1.4-3.7-1.4c-2.8,0-5.1,2.2-5.1,6s2.3,6,5.1,6
			c1.4,0,2.6-0.4,3.7-1.4v1.6c-1,0.9-2.4,1.3-3.8,1.3c-3.8,0-6.7-2.9-6.7-7.4C157.8,9.9,160.6,7,164.5,7z"/>
		<path class="st1" d="M175.6,21.9c-3.8,0-6.3-3-6.3-7.4c0-4.4,2.5-7.4,6.3-7.4c3.8,0,6.3,3,6.3,7.4C182,18.8,179.4,21.9,175.6,21.9
			z M175.6,8.4c-2.8,0-4.7,2.4-4.7,6s1.9,6,4.7,6c2.9,0,4.7-2.4,4.7-6S178.5,8.4,175.6,8.4z"/>
		<path class="st1" d="M198.5,7c2.9,0,4.3,2.1,4.3,4.9v9.6h-1.6v-9.4c0-2.2-1-3.7-3.1-3.7c-1.8,0-3.2,1.3-3.8,3v10.1h-1.6v-9.4
			c0-2.2-1-3.7-3.1-3.7c-1.8,0-3.2,1.3-3.8,3v10.1h-1.6V7.3h1.6v2.2c0.7-1.4,2.2-2.5,4.1-2.5c2.1,0,3.4,1.1,4,2.7
			C194.9,8.3,196.5,7,198.5,7z"/>
		<path class="st1" d="M207.7,27h-1.6V7.3h1.6v2.1c0.8-1.2,2.5-2.4,4.4-2.4c4.2,0,6.2,3.5,6.2,7.4s-2,7.4-6.2,7.4
			c-2,0-3.6-1.2-4.4-2.4V27z M207.7,17.5c1,1.8,2.5,2.8,4.3,2.8c3,0,4.8-2.5,4.8-5.9S215,8.5,212,8.5c-1.7,0-3.3,1-4.3,2.8V17.5z"/>
		<path class="st1" d="M221.6,4c-0.6,0-1.1-0.5-1.1-1.1c0-0.6,0.5-1.1,1.1-1.1s1.1,0.5,1.1,1.1C222.7,3.6,222.2,4,221.6,4z
			 M222.4,21.6h-1.6V7.3h1.6V21.6z"/>
		<path class="st1" d="M227.2,21.6h-1.6V0.7h1.6V21.6z"/>
		<path class="st1" d="M236.5,20.4c1.6,0,2.8-0.4,4-1.4v1.6c-1.1,0.9-2.5,1.3-4.1,1.3c-4,0-6.7-2.8-6.7-7.3c0-4.4,2.4-7.6,6.2-7.6
			c3.7,0,5.7,2.8,5.7,7v0.6h-10.3C231.2,18.4,233.5,20.4,236.5,20.4z M231.3,13.2h8.6c-0.1-2.5-1.3-4.8-4.1-4.8
			C233.5,8.4,231.7,10.2,231.3,13.2z"/>
	</g>
	<path class="st1" d="M75.4,8.4c-1.1,0-2.1-0.9-2.1-2.1c0-1.2,0.9-2.1,2.1-2.1c1.1,0,2.1,0.9,2.1,2.1C77.5,7.5,76.6,8.4,75.4,8.4
		 M75.4,4.6c-0.9,0-1.7,0.7-1.7,1.7s0.8,1.7,1.7,1.7c0.9,0,1.7-0.7,1.7-1.7S76.4,4.6,75.4,4.6 M75.2,6.7v0.7h-0.6V5.2h1
		c0.5,0,0.8,0.3,0.8,0.8c0,0.3-0.2,0.6-0.4,0.7l0.5,0.8h-0.7l-0.4-0.7H75.2z M75.5,5.7h-0.3v0.5h0.3c0.2,0,0.3-0.1,0.3-0.2
		C75.8,5.8,75.7,5.7,75.5,5.7"/>
</g>
</svg>
